<?xml version="1.0" encoding="UTF-8"?>
<svg xmlns="http://www.w3.org/2000/svg" width="6400" height="680">
<path d="M 0 90 C 0 45,45 0, 90 0 H 344 C 389 0,434 45, 434 90 H 106 V 312 H 434 C 434 357,389 402, 344 402 H 90 C 45 402,0 357, 0 312 Z M 482 90 C 482 45,527 0, 572 0 H 840 C 885 0,930 45, 930 90 V 312 C 930 357,885 402, 840 402 H 572 C 527 402,482 357 482 312 Z M 584 90 V 312 H 828 V 90 Z M 1000 0 C 1045 0,1102 45, 1102 90 V 312 H 1346 V 0 H 1448 V 312 C 1448 357,1403 402 1346 402 H 1102 C 1045 402,1000 357 1000 312 Z M 1526 0 C 1624 0,1662 35.435 1700 70.87 L 1908 264.834 V 90 C 1908 45,1957 0 2006 0 V 402 H 1908 L 1624 137.166 V 402 H 1526 Z M 2034 90 C 2034 45,2079 0 2124 0 H 2488 C 2488 45,2443 90 2398 90 H 2308 V 402 H 2210 V 90 Z M 2518 0 H 2908 C 2908 45,2863 90 2818 90 H 2620 V 156 H 2862 C 2862 201,2817 246 2772 246 H 2620 V 312 H 2908 C 2908 357,2863 402 2818 402 H 2518 Z M 2964 0 H 3246 C 3358 0,3384 45 3384 128 V 150 C 3384 214,3368.2927 256.03375 3308.752 271.35742 L 3426 414 H 3312 C 3297.647 414,3288.153 408 3283.294 402 L 3110 188 H 3246 C 3265 188,3284 174 3284 160 V 118 C 3284 104,3265 90 3246 90 H 3064 V 402 H 2964 Z M 3498 156 H 3718 V 246 H 3498 Z M 3832 90 C 3832 45,3883 0 3934 0 H 4178 C 4229 0,4280 45 4280 90 H 3934 V 156 H 4178 C 4229 156,4280 201 4280 246 V 312 C 4280 357,4229 402 4178 402 H 3934 C 3883 402,3832 357 3832 312 H 4178 V 246 H 3934 C 3883 246,3832 201 3832 156 Z M 4298 90 C 4298 45,4343 0 4388 0 H 4752 C 4752 45,4707 90 4662 90 H 4572 V 402 H 4474 V 90 Z M 4786 0 H 5068 C 5180 0,5206 45 5206 128 V 150 C 5206 214,5190.2927 256.03375 5130.752 271.35742 L 5248 414 H 5134 C 5119.647 414,5110.153 408 5105.294 402 L 4932 188 H 5068 C 5087 188,5106 174 5106 160 V 118 C 5106 104,5087 90 5068 90 H 4886 V 402 H 4786 Z M 5312 0 H 5412 V 402 H 5312 Z M 5518 0 H 5616 V 156 H 5630 L 5820 0 H 5964 L 5740 198 L 6002 402 H 5858 C 5839 402,5833.038 392.588 5820 383.175 L 5630 240 H 5616 V 402 H 5518 Z M 6010 0 H 6400 C 6400 45,6355 90 6310 90 H 6112 V 156 H 6354 C 6354 201,6309 246 6264 246 H 6112 V 312 H 6400 C 6400 357,6355 402 6310 402 H 6010 Z M 3981.9589,603.49028 H 4044.2656 L 4044.6803,631.58533 Q 4044.6803,662.27213 4033.0691,671.18792 4021.5615,680 3981.5442,680 3944.8445,680 3932.9222,668.18143 3921,656.36286 3921,619.97408 3921,573.52915 3925.7688,561.29592 3931.6782,546.36719 3943.7041,541.18359 3955.7299,536 3984.5508,536 4022.2871,536 4033.2764,544.0864 4044.2656,552.06913 4044.2656,579.64581 H 4017.1036 Q 4016.378,565.75379 4010.987,562.43629 4005.6997,559.01512 3984.2397,559.01512 3960.9135,559.01512 3954.5896,564.82073 3948.3693,570.62637 3948.3693,592.08641 L 3948.2656,606.28943 3948.4729,624.43198 Q 3948.4729,645.47732 3954.6933,651.28295 3960.9135,656.98489 3983.514,656.98489 4005.4924,656.98489 4011.4016,652.11232 4017.4146,647.23976 4017.4146,629.09721 L 4017.5183,623.29158 H 3981.9589 Z M 4105 536 H 4132 V 656 H 4196 V 680 H 4105 Z M 4311.5205,536 Q 4350.0865,536 4361.1793,548.8553 4372.2721,561.60693 4372.2721,606.08208 4372.2721,654.7041 4361.0757,667.35206 4349.9827,680 4307.1664,680 4268.6005,680 4257.3004,667.55939 4246,655.01512 4246,612.50972 4246,561.91794 4257.0929,548.95897 4268.1858,536 4311.5205,536 Z M 4309.4471,559.01512 Q 4282.3888,559.01512 4277.8273,565.96113 4273.2657,572.90713 4273.2657,614.0648 4273.2657,644.54427 4278.5529,650.76458 4283.9439,656.98488 4310.0692,656.98488 4335.054,656.98488 4340.0302,650.03889 4345.0065,642.9892 4345.0065,607.53349 4345.0065,571.97408 4340.2375,565.54645 4335.5724,559.01512 4309.4471,559.01512 Z M 4430,680 V 536 H 4500.7868 Q 4525.6835,536 4534.6505,544.01758 4543.723,551.92967 4543.723,573.97801 4543.723,600.66814 4522.5187,605.41539 V 605.94287 Q 4547.2043,609.74067 4547.2043,640.22859 4547.2043,662.27692 4537.7098,671.13846 4528.2154,680 4504.5845,680 Z M 4457.323,596.44835 H 4490.7648 Q 4507.0109,596.44835 4511.4417,592.86153 4515.978,589.27473 4515.978,576.2989 4515.978,558.99781 4496.3559,558.99781 H 4457.323 Z M 4457.323,657.00221 H 4487.2837 L 4496.8835,656.79122 Q 4510.7033,656.79122 4515.0286,652.88792 4519.4592,648.98462 4519.4592,636.43077 4519.4592,623.34946 4514.8175,619.97363 4510.2814,616.59779 4492.2418,616.59779 H 4457.323 Z M 4593 680 L 4642 536 H 4682 L 4730 680 H 4700 L 4691.589 653 H 4632.411 L 4624 680 Z M 4638.952 632 H 4685.048 L 4662 558 Z M 4783 536 H 4810 V 656 H 4874 V 680 H 4783 Z M 5084.5206,536 Q 5123.0864,536 5134.1793,548.8553 5145.2722,561.60693 5145.2722,606.08209 5145.2722,654.70411 5134.0756,667.35206 5122.9828,680 5080.1665,680 5041.6005,680 5030.3002,667.55939 5019,655.01512 5019,612.50972 5019,561.91794 5030.0929,548.95897 5041.1858,536 5084.5206,536 Z M 5082.4471,559.01512 Q 5055.3888,559.01512 5050.8273,565.96114 5046.2657,572.90713 5046.2657,614.0648 5046.2657,644.54428 5051.553,650.76458 5056.9439,656.98489 5083.0692,656.98489 5108.0541,656.98489 5113.0303,650.03889 5118.0065,642.9892 5118.0065,607.53349 5118.0065,571.97408 5113.2376,565.54645 5108.5725,559.01512 5082.4471,559.01512 Z M 5205 536 H 5298 V 562 H 5232 V 600 H 5294 V 622 H 5232 V 680 H 5205 Z M 5356 536 H 5449 V 562 H 5383 V 600 H 5445 V 622 H 5383 V 680 H 5356 Z M 5504 536 H 5602 V 560 H 5531 V 596 H 5598 V 618 H 5531 V 656 H 5602 V 680 H 5504 Z M 5662 536 H 5708 L 5767 654 V 536 H 5794 V 680 H 5748 L 5689 562 V 680 H 5662 Z M 5964.8251,578.5054 H 5938.5962 Q 5938.3889,576.53565 5938.3889,575.6026 5937.4558,563.68036 5933.1015,560.67387 5928.7474,557.56373 5912.5745,557.56373 5893.499,557.56373 5887.5896,561.08857 5881.7841,564.6134 5881.7841,575.91362 5881.7841,589.28726 5886.5528,591.98272 5891.3219,594.6782 5918.0691,596.1296 5949.6891,597.89201 5958.9159,605.14904 5968.2464,612.40604 5968.2464,635.3175 5968.2464,663.5162 5957.3608,671.80995 5946.4752,680 5909.3607,680 5875.9785,680 5864.9892,671.91361 5854.1038,663.82721 5854.1038,639.15333 L 5854,633.96976 H 5880.1254 L 5880.229,636.97624 Q 5880.229,651.8013 5885.4126,655.11879 5890.5962,658.4363 5913.7149,658.4363 5931.7538,658.4363 5936.7301,654.60044 5941.7063,650.76458 5941.7063,636.87257 5941.7063,626.60907 5937.8705,623.29158 5934.1381,619.87041 5921.594,619.14471 L 5906.7689,618.21167 Q 5873.1793,616.24191 5863.8489,608.88122 5854.5183,601.52052 5854.5183,577.26135 5854.5183,552.48381 5865.715,544.29374 5877.0152,536 5910.7085,536 5942.6393,536 5953.7322,543.56806 5964.8251,551.13607 5964.8251,573.11448 Z M 6029 536 H 6056 V 680 H 6029 Z M 6108 536 H 6137 L 6175 655 L 6213 536 H 6242 L 6196 680 H 6154 Z M 6291 536 H 6389 V 560 H 6318 V 596 H 6385 V 618 H 6318 V 656 H 6389 V 680 H 6291 Z"/>
</svg>